HIERARCHY
ROOT Hips
{
	OFFSET 0.00000 0.00000 0.00000
	CHANNELS 6 Xposition Yposition Zposition Zrotation Yrotation Xrotation 
	JOINT LHipJoint
	{
		OFFSET 0 0 0
		CHANNELS 3 Zrotation Yrotation Xrotation
		JOINT LeftUpLeg
		{
			OFFSET 1.44960 -1.75505 0.85172
			CHANNELS 3 Zrotation Yrotation Xrotation
			JOINT LeftLeg
			{
				OFFSET 2.40573 -6.60971 0.00000
				CHANNELS 3 Zrotation Yrotation Xrotation
				JOINT LeftFoot
				{
					OFFSET 2.58773 -7.10974 0.00000
					CHANNELS 3 Zrotation Yrotation Xrotation
					JOINT LeftToeBase
					{
						OFFSET 0.18252 -0.50147 1.77316
						CHANNELS 3 Zrotation Yrotation Xrotation
						End Site
						{
							OFFSET 0.00000 -0.00000 0.92990
						}
					}
				}
			}
		}
	}
	JOINT RHipJoint
	{
		OFFSET 0 0 0
		CHANNELS 3 Zrotation Yrotation Xrotation
		JOINT RightUpLeg
		{
			OFFSET -1.40744 -1.75505 0.85172
			CHANNELS 3 Zrotation Yrotation Xrotation
			JOINT RightLeg
			{
				OFFSET -2.43714 -6.69600 0.00000
				CHANNELS 3 Zrotation Yrotation Xrotation
				JOINT RightFoot
				{
					OFFSET -2.51650 -6.91404 0.00000
					CHANNELS 3 Zrotation Yrotation Xrotation
					JOINT RightToeBase
					{
						OFFSET -0.25383 -0.69740 1.96384
						CHANNELS 3 Zrotation Yrotation Xrotation
						End Site
						{
							OFFSET -0.00000 -0.00000 1.04244
						}
					}
				}
			}
		}
	}
	JOINT LowerBack
	{
		OFFSET 0 0 0
		CHANNELS 3 Zrotation Yrotation Xrotation
		JOINT Spine
		{
			OFFSET 0.00579 2.14458 -0.24367
			CHANNELS 3 Zrotation Yrotation Xrotation
			JOINT Spine1
			{
				OFFSET 0.05899 2.16316 -0.04515
				CHANNELS 3 Zrotation Yrotation Xrotation
				JOINT Neck
				{
					OFFSET 0 0 0
					CHANNELS 3 Zrotation Yrotation Xrotation
					JOINT Neck1
					{
						OFFSET -0.01650 1.59577 0.24841
						CHANNELS 3 Zrotation Yrotation Xrotation
						JOINT Head
						{
							OFFSET -0.01016 1.63072 -0.17782
							CHANNELS 3 Zrotation Yrotation Xrotation
							End Site
							{
								OFFSET -0.00250 1.64111 -0.08717
							}
						}
					}
				}
				JOINT LeftShoulder
				{
					OFFSET 0 0 0
					CHANNELS 3 Zrotation Yrotation Xrotation
					JOINT LeftArm
					{
						OFFSET 3.17745 0.95174 -0.45729
						CHANNELS 3 Zrotation Yrotation Xrotation
						JOINT LeftForeArm
						{
							OFFSET 4.93485 -0.00000 0.00000
							CHANNELS 3 Zrotation Yrotation Xrotation
							JOINT LeftHand
							{
								OFFSET 3.41719 -0.00000 -0.00000
								CHANNELS 3 Zrotation Yrotation Xrotation
								JOINT LeftFingerBase
								{
									OFFSET 0 0 0
									CHANNELS 3 Zrotation Yrotation Xrotation
									JOINT LeftHandIndex1
									{
										OFFSET 0.62410 -0.00000 -0.00000
										CHANNELS 3 Zrotation Yrotation Xrotation
										End Site
										{
											OFFSET 0.50317 -0.00000 -0.00000
										}
									}
								}
								JOINT LThumb
								{
									OFFSET 0 0 0
									CHANNELS 3 Zrotation Yrotation Xrotation
									End Site
									{
										OFFSET 0.51085 -0.00000 0.51085
									}
								}
							}
						}
					}
				}
				JOINT RightShoulder
				{
					OFFSET 0 0 0
					CHANNELS 3 Zrotation Yrotation Xrotation
					JOINT RightArm
					{
						OFFSET -2.87924 1.13038 -0.75204
						CHANNELS 3 Zrotation Yrotation Xrotation
						JOINT RightForeArm
						{
							OFFSET -5.22034 -0.00000 0.00000
							CHANNELS 3 Zrotation Yrotation Xrotation
							JOINT RightHand
							{
								OFFSET -3.41809 -0.00000 -0.00000
								CHANNELS 3 Zrotation Yrotation Xrotation
								JOINT RightFingerBase
								{
									OFFSET 0 0 0
									CHANNELS 3 Zrotation Yrotation Xrotation
									JOINT RightHandIndex1
									{
										OFFSET -0.77534 -0.00000 -0.00000
										CHANNELS 3 Zrotation Yrotation Xrotation
										End Site
										{
											OFFSET -0.62510 -0.00000 -0.00000
										}
									}
								}
								JOINT RThumb
								{
									OFFSET 0 0 0
									CHANNELS 3 Zrotation Yrotation Xrotation
									End Site
									{
										OFFSET -0.63464 -0.00000 0.63464
									}
								}
							}
						}
					}
				}
			}
		}
	}
}
MOTION
Frames: 10
Frame Time: .0083333
0.3302 17.3193 -20.5151 4.9506 5.4507 4.6650 0.0000 0.0000 0.0000 -31.4175 -3.4727 -1.3132 1.1125 6.7008 18.8319 0.9124 -9.5246 -17.3169 0.3909 4.0149 11.1186 0.0000 0.0000 0.0000 10.4586 5.8020 -34.6055 -2.5750 -9.9729 28.8891 -0.6167 -5.3163 -17.7189 -0.0203 -0.9194 2.5270 -7.4723 -0.3212 3.9055 -0.3922 -0.7609 0.2940 3.8270 -0.3225 -1.7980 -2.3350 -1.5668 -15.6664 -1.7241 -1.1604 20.8934 -0.3449 -0.9159 9.1639 -0.0000 -0.0000 0.0000 -85.1960 -0.8182 25.8208 20.0774 -30.7354 -5.5708 -0.0000 -0.0000 2.9248 4.9347 43.2395 3.3850 -7.1250 0.0000 -0.0000 -45.6060 68.0977 -27.4063 -0.0000 -0.0000 0.0000 84.9764 0.7032 -0.3767 -14.6468 23.6518 -3.0828 0.0000 -0.0000 -9.8186 -13.3550 21.9629 -5.0740 7.1250 -0.0000 -0.0000 9.7305 -7.7313 8.4591
0.3293 17.3204 -20.4011 5.4074 5.6784 4.8042 0.0000 0.0000 0.0000 -31.8688 -3.2628 -0.5296 1.0152 6.4103 17.9797 0.8796 -9.6825 -17.0541 0.3961 4.0409 11.1918 0.0000 0.0000 0.0000 9.8671 5.9077 -34.5372 -2.2497 -9.3679 26.9531 -0.6167 -5.8409 -18.1039 -0.0074 -0.5573 1.5313 -8.0054 -0.4261 3.7209 -0.3567 -0.9050 0.3037 4.1673 -0.3958 -1.6582 -2.1874 -1.7102 -15.7042 -2.1773 -1.2885 20.9941 -0.5420 -1.0154 9.2023 -0.0000 -0.0000 0.0000 -85.5008 -1.0453 25.7327 19.9390 -30.5688 -5.5003 -0.0000 -0.0000 3.3397 5.1269 41.9691 3.4336 -7.1250 0.0000 -0.0000 -43.1482 67.2776 -24.9511 -0.0000 -0.0000 0.0000 84.8767 0.7785 -0.3826 -14.6815 23.7006 -3.0968 0.0000 -0.0000 -9.4412 -13.8967 21.8736 -5.2664 7.1250 -0.0000 -0.0000 9.3861 -7.7573 8.1463
0.3179 17.3244 -20.3075 5.1950 5.7109 4.8876 0.0000 0.0000 0.0000 -31.5768 -3.2147 0.1013 0.9417 6.1807 17.3095 0.8690 -9.5634 -16.9398 0.3779 3.9482 10.9310 0.0000 0.0000 0.0000 9.9770 6.6294 -34.3111 -1.9335 -8.7262 24.9426 -0.5501 -6.9110 -18.2135 -0.0213 -0.9429 2.5917 -7.8144 -0.4413 3.9769 -0.2747 -0.9436 0.2187 4.1521 -0.4050 -1.8870 -2.0852 -1.7489 -15.8243 -2.2733 -1.3418 21.0337 -0.6002 -1.0438 9.2365 -0.0000 -0.0000 0.0000 -85.4656 -0.9071 26.0450 20.0811 -30.7399 -5.5727 -0.0000 -0.0000 3.0237 4.7222 42.8392 3.2148 -7.1250 0.0000 -0.0000 -45.0739 67.7586 -26.7101 -0.0000 -0.0000 0.0000 84.8682 0.8365 0.0256 -14.6596 23.6698 -3.0880 0.0000 -0.0000 -9.7136 -13.4796 22.4944 -5.2398 7.1250 -0.0000 -0.0000 9.6728 -7.1841 8.5125
0.3245 17.3279 -20.2027 5.4313 5.7745 5.2233 0.0000 0.0000 0.0000 -31.8077 -2.9707 0.5743 0.8406 5.8481 16.3445 0.8054 -9.5907 -16.3704 0.3753 3.9346 10.8926 0.0000 0.0000 0.0000 9.5786 6.9082 -34.5137 -1.6706 -8.1434 23.1505 -0.5114 -7.6948 -18.4573 -0.0044 -0.4266 1.1721 -7.9839 -0.4835 3.5330 -0.2777 -0.9700 0.1306 4.2392 -0.4207 -1.7230 -2.1220 -1.7833 -15.8794 -2.3286 -1.3609 21.2236 -0.6181 -1.0641 9.3130 -0.0000 -0.0000 0.0000 -85.5419 -0.9602 26.3678 19.9685 -30.6043 -5.5153 -0.0000 -0.0000 3.3114 5.3359 42.4211 3.6051 -7.1250 0.0000 -0.0000 -43.7341 67.6600 -25.7037 -0.0000 -0.0000 0.0000 84.8288 1.0033 -0.5271 -14.4157 23.3259 -2.9908 0.0000 -0.0000 -9.4160 -13.6357 22.9533 -5.4043 7.1250 -0.0000 -0.0000 9.5946 -6.7055 8.5322
0.3212 17.3332 -20.1045 5.5276 5.5085 5.4516 0.0000 0.0000 0.0000 -31.9183 -2.7901 1.0500 0.7642 5.5826 15.5781 0.7943 -9.5062 -16.2527 0.4352 4.2335 11.7345 0.0000 0.0000 0.0000 9.2195 7.8412 -34.3816 -1.4225 -7.5422 21.3321 -0.4437 -8.5527 -18.4926 -0.0099 -0.6431 1.7672 -8.1432 -0.3823 3.5641 -0.2465 -0.8489 0.0348 4.3568 -0.3509 -1.8535 -2.2350 -1.8773 -16.0368 -2.1045 -1.5121 21.1419 -0.5423 -1.1184 9.3160 -0.0000 0.0000 0.0000 -85.6217 -0.8974 26.6748 20.0062 -30.6498 -5.5345 -0.0000 -0.0000 3.1782 4.9010 41.8192 3.2723 -7.1250 0.0000 -0.0000 -43.1121 67.1025 -24.7627 -0.0000 0.0000 0.0000 84.8479 1.0755 -0.4256 -14.5602 23.5298 -3.0482 0.0000 -0.0000 -9.4580 -13.3911 22.7903 -5.2689 7.1250 -0.0000 -0.0000 9.7401 -6.8983 8.6285
0.3182 17.3380 -19.9971 5.5630 5.7121 5.4312 0.0000 0.0000 0.0000 -31.8413 -2.2490 1.8619 0.6883 5.3040 14.7777 0.7702 -9.9131 -16.1102 0.4224 4.1714 11.5594 0.0000 0.0000 0.0000 8.8353 8.6381 -33.8782 -1.2116 -6.9826 19.6638 -0.3714 -9.9646 -19.1095 -0.0000 0.0039 -0.0106 -8.1402 -0.4557 3.6144 -0.2311 -0.9515 0.0262 4.3768 -0.4008 -1.8767 -2.2435 -1.8139 -15.7291 -1.9507 -1.4699 21.0743 -0.4786 -1.0803 9.2365 0.0000 -0.0000 0.0000 -85.6353 -0.9070 26.9616 20.0334 -30.6825 -5.5484 -0.0000 -0.0000 3.1543 5.0280 42.3191 3.3899 -7.1250 0.0000 -0.0000 -43.8523 67.4935 -25.6259 0.0000 -0.0000 0.0000 84.8745 0.8799 0.1065 -14.6430 23.6465 -3.0813 0.0000 -0.0000 -9.8597 -13.9557 22.6613 -5.4691 7.1250 -0.0000 -0.0000 9.3822 -6.9591 8.2911
0.3109 17.3464 -19.8990 5.6035 5.6475 5.8821 0.0000 0.0000 0.0000 -31.8438 -2.2441 2.2239 0.6083 4.9920 13.8858 0.7256 -9.9162 -15.6956 0.4878 4.4784 12.4265 0.0000 0.0000 0.0000 8.2059 9.9415 -33.9352 -1.0446 -6.4998 18.2417 -0.3952 -10.8800 -20.3422 -0.0019 -0.2851 0.7834 -8.2198 -0.4604 3.3600 -0.1777 -0.9440 -0.1474 4.4744 -0.3895 -1.9133 -2.0211 -1.8709 -15.7028 -2.3608 -1.5070 21.2595 -0.6626 -1.1272 9.2907 -0.0000 -0.0000 0.0000 -85.6305 -0.7973 27.2571 20.0741 -30.7315 -5.5692 -0.0000 -0.0000 2.9507 5.3841 42.7125 3.6579 -7.1250 0.0000 -0.0000 -44.2090 67.8778 -26.2324 -0.0000 -0.0000 0.0000 84.8746 0.8904 0.2537 -14.7129 23.7447 -3.1094 0.0000 -0.0000 -10.0298 -13.8886 22.9820 -5.5144 7.1250 -0.0000 -0.0000 9.4384 -6.6455 8.4004
0.3066 17.3407 -19.7964 5.8162 5.8880 6.0081 0.0000 0.0000 0.0000 -31.9854 -2.1240 2.9076 0.5508 4.7545 13.2097 0.6810 -10.1293 -15.3218 0.5243 4.6405 12.8860 0.0000 0.0000 0.0000 7.6149 10.5209 -33.7570 -0.8931 -6.0233 16.8522 -0.3293 -12.0356 -20.9458 -0.0024 0.3158 -0.8676 -8.4403 -0.5113 3.4376 -0.1559 -1.0297 -0.1856 4.6265 -0.4259 -1.9811 -1.8812 -1.9014 -15.6537 -2.5585 -1.5423 21.1672 -0.7565 -1.1532 9.2463 0.0000 0.0000 0.0000 -85.6492 -0.8231 27.7677 20.0524 -30.7054 -5.5581 -0.0000 -0.0000 3.1635 4.7904 42.0918 3.2152 -7.1250 0.0000 -0.0000 -43.6863 67.2611 -25.2941 0.0000 0.0000 0.0000 84.9603 0.4915 0.3672 -15.1391 24.3395 -3.2831 0.0000 -0.0000 -10.2723 -13.4630 22.8885 -5.3195 7.1250 -0.0000 -0.0000 9.6994 -6.7914 8.6118
0.3096 17.3372 -19.6908 6.2157 5.8326 6.3769 0.0000 0.0000 0.0000 -32.4894 -2.3504 3.4018 0.4998 4.5325 12.5799 0.6674 -9.7012 -15.0906 0.5425 4.7191 13.1091 0.0000 0.0000 0.0000 6.9117 10.9612 -33.9478 -0.7829 -5.6490 15.7692 -0.3074 -12.4750 -21.2314 -0.0010 0.2010 -0.5522 -8.7943 -0.4187 3.0729 -0.2072 -0.8855 -0.2108 4.7601 -0.3567 -1.8187 -2.2995 -2.0041 -15.5508 -1.9545 -1.7291 20.8315 -0.4983 -1.2029 9.1202 0.0000 0.0000 0.0000 -85.8389 -0.9513 28.2088 20.0266 -30.6744 -5.5449 -0.0000 -0.0000 3.0432 4.2410 43.0215 2.8964 -7.1250 0.0000 -0.0000 -45.8635 67.7326 -27.2283 0.0000 0.0000 0.0000 84.9129 1.0945 -0.9303 -14.6285 23.6260 -3.0755 0.0000 -0.0000 -9.5170 -13.3315 23.6452 -5.4292 7.1250 -0.0000 -0.0000 9.8142 -6.0503 8.8592
0.3017 17.3361 -19.5924 5.9676 5.8513 6.4448 0.0000 0.0000 0.0000 -32.1203 -1.9435 3.9308 0.4538 4.3216 11.9832 0.6568 -9.8046 -15.0107 0.4765 4.4268 12.2805 0.0000 0.0000 0.0000 6.8633 11.8216 -33.7893 -0.7067 -5.3729 14.9752 -0.3964 -12.9846 -22.6837 -0.0022 0.3040 -0.8353 -8.3590 -0.6395 3.3239 -0.1983 -1.1931 -0.3106 4.5432 -0.5027 -2.0265 -1.8724 -1.9894 -15.8430 -2.2065 -1.7469 21.1431 -0.6648 -1.2095 9.2742 0.0000 -0.0000 0.0000 -85.7158 -0.8858 27.6687 19.8986 -30.5200 -5.4798 -0.0000 -0.0000 3.2316 4.9842 42.4490 3.3686 -7.1250 0.0000 -0.0000 -44.1235 67.5705 -25.8822 0.0000 -0.0000 0.0000 85.1459 0.7976 0.2725 -14.9230 24.0388 -3.1945 0.0000 -0.0000 -9.7551 -13.5338 23.7571 -5.5386 7.1250 -0.0000 -0.0000 9.6945 -5.9132 8.7737
